<?xml version="1.0" encoding="utf-8"?>
<!-- Generator: Adobe Illustrator 16.0.0, SVG Export Plug-In . SVG Version: 6.00 Build 0)  -->
<!DOCTYPE svg PUBLIC "-//W3C//DTD SVG 1.1//EN" "http://www.w3.org/Graphics/SVG/1.1/DTD/svg11.dtd">
<svg version="1.1" id="Layer_1" xmlns="http://www.w3.org/2000/svg" xmlns:xlink="http://www.w3.org/1999/xlink" x="0px" y="0px"
	 width="200px" height="40px" viewBox="0 0 200 40" enable-background="new 0 0 200 40" xml:space="preserve">
<g>
	<path fill="#FFFFFF" d="M24.253,14.005c0,3.241-1.061,5.725-3.184,7.452c-2.123,1.727-5.145,2.59-9.065,2.59H8.777v11.612H3.703
		V4.622h8.938c3.878,0,6.783,0.793,8.715,2.377C23.287,8.584,24.253,10.92,24.253,14.005z M8.777,19.78h2.696
		c2.604,0,4.515-0.453,5.732-1.359c1.217-0.905,1.826-2.321,1.826-4.246c0-1.783-0.545-3.113-1.635-3.991
		c-1.09-0.877-2.788-1.316-5.095-1.316H8.777V19.78z"/>
	<path fill="#FFFFFF" d="M35.526,23.262v12.397h-5.074V4.622h8.768c4.005,0,6.97,0.75,8.895,2.25s2.887,3.765,2.887,6.793
		c0,3.864-2.01,6.617-6.029,8.258l8.768,13.735h-5.774l-7.431-12.397H35.526z M35.526,19.058h3.524c2.364,0,4.076-0.438,5.138-1.316
		c1.061-0.877,1.592-2.179,1.592-3.906c0-1.755-0.573-3.015-1.72-3.779c-1.146-0.765-2.873-1.146-5.18-1.146h-3.354V19.058z"/>
	<path fill="#FFFFFF" d="M75.799,35.659H58.242V4.622h17.557V8.91H63.315v8.449h11.698v4.246H63.315v9.744h12.483V35.659z"/>
	<path fill="#FFFFFF" d="M100.404,27.231c0,2.76-0.998,4.925-2.993,6.496s-4.749,2.356-8.258,2.356c-3.51,0-6.383-0.545-8.62-1.635
		v-4.798c1.416,0.665,2.919,1.188,4.512,1.571c1.592,0.382,3.075,0.572,4.448,0.572c2.009,0,3.492-0.381,4.447-1.146
		s1.433-1.79,1.433-3.079c0-1.16-0.439-2.144-1.316-2.95c-0.877-0.808-2.689-1.763-5.435-2.866
		c-2.831-1.146-4.826-2.455-5.987-3.927s-1.741-3.241-1.741-5.308c0-2.59,0.92-4.628,2.76-6.114c1.84-1.486,4.31-2.229,7.409-2.229
		c2.972,0,5.93,0.651,8.874,1.953l-1.613,4.14c-2.76-1.161-5.222-1.741-7.388-1.741c-1.642,0-2.888,0.358-3.736,1.072
		c-0.849,0.715-1.274,1.659-1.274,2.834c0,0.807,0.17,1.497,0.509,2.07c0.34,0.573,0.899,1.115,1.677,1.624
		c0.779,0.51,2.18,1.182,4.204,2.017c2.279,0.948,3.949,1.833,5.01,2.654c1.062,0.82,1.84,1.748,2.335,2.781
		C100.156,24.613,100.404,25.83,100.404,27.231z"/>
	<path fill="#FFFFFF" d="M112.805,35.659h-5.074l4.328-26.686h-9.129V4.622h23.332v4.352h-9.129L112.805,35.659z"/>
	<path fill="#37B34A" d="M128.872,35.659V4.622h5.074v26.685h13.142v4.353H128.872z"/>
	<path fill="#37B34A" d="M196,35.659h-6.221l-15.264-24.732h-0.17l0.105,1.38c0.199,2.632,0.298,5.039,0.298,7.218v16.134h-4.606
		V4.622h6.156l15.222,24.605h0.128c-0.029-0.325-0.086-1.51-0.17-3.556c-0.085-2.046-0.128-3.642-0.128-4.788V4.622H196V35.659z"/>
	<path fill="#37B34A" d="M154.426,27.056c0.205-0.665,0.462-1.056,0.77-1.056H155v-0.27c0-0.256,0.541-1.254-0.327-2.459
		c-0.469-0.65-0.811-2.728-1.015-2.728c-0.41,0-0.56-0.087-0.61-0.652c0-0.102-0.012-0.281,0.092-0.538L153,18.971v-0.155
		c0-0.05,0.227-0.101,0.482-0.153l-0.104-1.382c0-1.229,0.612-2.407,1.791-3.534c0.385-0.381,1.618-0.744,1.618-0.744
		c0.102-0.051,0.239-0.32,0.392-0.32c0,0,0.982-0.072,1.414,0.021l0.824,0.666c0.973,0.462,1.664,0.714,2.074,1.482
		c0.359,1.025,0.539,1.712,0.539,1.712l1.454,0.013c0,1.623-1.274,0.953-0.967,1.516c0,0.359,0.076,0.908-0.64,0.908h0.076
		c0,0-0.044,0.6-0.095,0.6c0,0,0.087,0.935,0.059,1.223c-0.054,0.556-0.372,1.846-0.46,2.198c-0.113,0.463-0.459,0.833-0.459,1.863
		v0.923c1-0.012,1.143,0.794,1.4,0.998c0,0.153,4.048,1.516,4.663,1.72c1.023,0.512,1.979,1.854,1.979,1.854
		c0.31,0.541,0.614,2.62,0.953,4.62h3.095L160.715,5h-5.65L142.74,35h4.685c0.081-1,0.161-1.564,0.241-2.076l0.539-1.715
		c0.664-1.076,1.509-1.77,2.533-2.334"/>
</g>
</svg>
